<svg id="Capa_1" enable-background="new 0 0 495.99 495.99" height="512" viewBox="0 0 495.99 495.99" width="512" xmlns="http://www.w3.org/2000/svg"><g><g><path d="m137.764 144.165-11.01 31.61 8.394 26.6-25.972 16.159-21.757 52.925.005.006v26.705l-21.76 26.225-.005-.005-21.759 52.93.004.005v30.955l-21.76 21.975-.001-.01-21.369 51.98c-3.36 8.18 4.82 16.35 13 12.99l92.391-37.983 5.612-11.657 76.227-21.99.002.002 81.828-33.64v-.001l15.193-16.885 35.187-3.825 23.93-6.66z" fill="#c8effe"/><path d="m419.984 81.71-6.445 12.648c-.834 1.637-.519 3.625.78 4.924l10.038 10.038c2.905 2.905.395 7.83-3.662 7.187l-14.021-2.221c-1.815-.287-3.608.626-4.442 2.263l-6.445 12.648c-1.865 3.66-7.325 2.796-7.967-1.262l-2.221-14.021c-.287-1.815-1.711-3.238-3.525-3.525l-14.021-2.221c-4.058-.643-4.922-6.102-1.262-7.967l12.648-6.445c1.637-.834 2.551-2.627 2.263-4.442l-2.221-14.021c-.643-4.058 4.282-6.567 7.187-3.662l10.038 10.038c1.299 1.299 3.287 1.614 4.924.78l12.648-6.445c3.662-1.863 7.571 2.045 5.706 5.706z" fill="#fee97d"/><path d="m212.802 20.208 4.079 13.597c.528 1.76 2.129 2.979 3.966 3.021l14.192.322c4.107.093 5.695 5.388 2.318 7.726l-11.671 8.081c-1.511 1.046-2.176 2.945-1.648 4.705l4.079 13.597c1.18 3.935-3.364 7.082-6.632 4.592l-11.292-8.603c-1.461-1.113-3.474-1.159-4.984-.113l-11.671 8.081c-3.378 2.339-7.775-1.011-6.417-4.888l4.692-13.398c.607-1.734.029-3.662-1.432-4.775l-11.292-8.603c-3.268-2.49-1.441-7.706 2.666-7.613l14.192.322c1.837.042 3.492-1.104 4.099-2.838l4.692-13.398c1.357-3.875 6.883-3.75 8.064.185z" fill="#fedf30"/><path d="m260.988 155.48 39.143-39.144c29.438-29.438 41.325-72.134 31.335-112.55-.592-2.394-2.846-3.995-5.301-3.765l-40.023 3.752c-2.951.277-5.009 3.053-4.416 5.957l5.669 27.766c5.435 26.62 1.586 54.298-10.908 78.424l-19.116 36.913c-1.191 2.301 1.785 4.479 3.617 2.647z" fill="#fea3ce"/><g><path d="m191.469 151.844c-1.92 0-3.839-.732-5.304-2.197-2.929-2.929-2.929-7.678.001-10.606 9.42-9.42 15.339-21.909 16.665-35.166.412-4.122 4.097-7.128 8.21-6.716 4.121.413 7.128 4.088 6.716 8.209-1.671 16.692-9.123 32.417-20.985 44.279-1.464 1.465-3.384 2.197-5.303 2.197z" fill="#f37c7c"/></g><g><path d="m298.067 182.903c-1.92 0-3.839-.732-5.304-2.197-2.929-2.929-2.929-7.678.001-10.606l16.934-16.933c10.584-10.585 18.814-22.98 24.464-36.843 1.563-3.835 5.938-5.68 9.775-4.115 3.836 1.563 5.679 5.94 4.115 9.776-6.407 15.723-15.743 29.782-27.748 41.788l-16.934 16.933c-1.464 1.465-3.384 2.197-5.303 2.197z" fill="#f37c7c"/></g><path d="m475.781 283.188-13.597-4.079c-1.76-.528-2.979-2.129-3.021-3.966l-.322-14.192c-.093-4.107-5.388-5.695-7.726-2.318l-8.081 11.671c-1.046 1.511-2.945 2.176-4.705 1.648l-13.597-4.079c-3.935-1.18-7.082 3.364-4.592 6.632l8.603 11.292c1.113 1.461 1.159 3.474.113 4.984l-8.081 11.671c-2.339 3.378 1.011 7.775 4.888 6.417l13.398-4.692c1.734-.607 3.662-.029 4.775 1.432l8.603 11.292c2.49 3.268 7.706 1.441 7.613-2.666l-.322-14.192c-.042-1.837 1.104-3.492 2.838-4.099l13.398-4.692c3.876-1.357 3.75-6.884-.185-8.064z" fill="#fedf30"/><path d="m340.51 235.002 39.144-39.144c29.438-29.438 72.134-41.325 112.55-31.335 2.394.592 3.995 2.846 3.765 5.301l-3.752 40.023c-.277 2.951-3.053 5.009-5.957 4.416l-27.766-5.669c-26.62-5.435-54.298-1.586-78.424 10.908l-36.913 19.116c-2.302 1.192-4.479-1.784-2.647-3.616z" fill="#fea3ce"/><g><path d="m351.646 312.02c-1.919 0-3.839-.732-5.303-2.197-2.93-2.929-2.93-7.677-.001-10.606 11.862-11.862 27.587-19.314 44.279-20.984 4.129-.408 7.798 2.595 8.209 6.716.412 4.122-2.595 7.797-6.717 8.209-13.256 1.326-25.744 7.244-35.164 16.665-1.464 1.465-3.384 2.197-5.303 2.197z" fill="#f37c7c"/></g><g><path d="m320.586 205.423c-1.92 0-3.839-.732-5.304-2.197-2.929-2.929-2.929-7.678 0-10.606l16.935-16.933c12.004-12.005 26.064-21.342 41.788-27.749 3.837-1.565 8.212.279 9.775 4.115s-.279 8.212-4.115 9.775c-13.862 5.649-26.258 13.88-36.842 24.464l-16.934 16.933c-1.464 1.465-3.384 2.198-5.303 2.198z" fill="#41f9a5"/></g><g><path d="m272.827 230.662c-1.919 0-3.839-.732-5.304-2.197-2.929-2.929-2.929-7.678 0-10.606l18.08-18.08c2.93-2.929 7.678-2.929 10.607 0s2.929 7.678 0 10.606l-18.08 18.08c-1.464 1.465-3.384 2.197-5.303 2.197z" fill="#41f9a5"/></g><path d="m137.764 144.165-11.01 31.61 8.394 26.6-25.972 16.159-21.757 52.925.005.006v26.705l-21.76 26.225-.005-.005-21.759 52.93.004.005v30.955l-21.76 21.975-.001-.01-21.369 51.98c-3.36 8.18 4.82 16.35 13 12.99l42.949-17.657 83.381-202.826c7.943-19.322 32.99-24.339 47.762-9.567l112.308 112.308 20.04-8.239 23.93-6.66z" fill="#99e6fc"/><g id="XMLID_262_"><g><path d="m247.774 260.585-49.72-13.52-88.87-28.53h-.01l17.58-42.76 11.01-31.61z" fill="#fedf30"/><path d="m329.854 347.455 14.29 15.12-23.93 6.66-50.38 20.71-204.17-65.55 21.75-52.93h.01l198.87 63.85z" fill="#fee97d"/><g fill="#fedf30"><path d="m87.424 271.465h-.008l-5.56 13.525-16.192 39.405 47.725 15.323 21.759-52.93z"/><path d="m344.127 362.557-14.273-15.102-43.56-12.14-41.652-13.373 55.531 55.532 20.041-8.239 23.93-6.66z"/></g><path d="m43.904 377.325 144.1 46.26-81.84 33.65v-.01l-84.02-26.97z" fill="#fee97d"/><path d="m22.144 430.255 47.727 15.32 21.759-52.929-47.726-15.321z" fill="#fedf30"/></g></g></g><path d="m323.806 372.822-200.638-200.638c-5.508-5.508-5.508-14.438 0-19.945l9.32-9.32c5.508-5.508 14.438-5.508 19.945 0l200.638 200.638c5.508 5.508 5.508 14.438 0 19.945l-9.32 9.32c-5.507 5.508-14.437 5.508-19.945 0z" fill="#c8effe"/></g></svg>